PathFileType	4	(X/Y/Z)	D:\Research_projects\MuscleProsody\BulkSports2Dtrack\RetrackedSports2D\p1_sample60_cam2\p1_sample60_cam2_Sports2D\p1_sample60_cam2_Sports2D_px_person00.trc
DataRate	CameraRate	NumFrames	NumMarkers	Units	OrigDataRate	OrigDataStartFrame	OrigNumFrames
60	60	9	22	m	60	585	780
Frame#	Time	Hip			RHip			RKnee			RAnkle			RBigToe			RSmallToe			RHeel			LHip			LKnee			LAnkle			LBigToe			LSmallToe			LHeel			Neck			Head			Nose			RShoulder			RElbow			RWrist			LShoulder			LElbow			LWrist		
		X1	Y1	Z1	X2	Y2	Z2	X3	Y3	Z3	X4	Y4	Z4	X5	Y5	Z5	X6	Y6	Z6	X7	Y7	Z7	X8	Y8	Z8	X9	Y9	Z9	X10	Y10	Z10	X11	Y11	Z11	X12	Y12	Z12	X13	Y13	Z13	X14	Y14	Z14	X15	Y15	Z15	X16	Y16	Z16	X17	Y17	Z17	X18	Y18	Z18	X19	Y19	Z19	X20	Y20	Z20	X21	Y21	Z21	X22	Y22	Z22
585	9.75	249.124865857961	515.3728818032662	0.0	220.75881952192373	522.7447375234115	0.0	219.278981550309	634.674397081316	0.0	221.2555546388025	726.6466808135801	0.0	219.81729388390838	768.1769770663698	0.0	203.07841012014205	762.3771795814835	0.0	227.75349423643695	737.0952307693308	0.0	276.1746404932701	525.4866623486503	0.0	269.40690602646316	636.7144849594368	0.0	268.6237355437573	731.2344658109442	0.0	266.02162413131504	769.9173318875479	0.0	283.8741027511432	765.4646055718166	0.0	264.22815726112617	740.3613387816328	0.0	254.60122847841154	333.22623735956665	0.0	251.9698262770462	250.0945725711768	0.0	241.7614609275107	292.6466040540279	0.0	207.11380868004588	359.2475178348248	0.0	189.56112008362868	437.8674821535866	0.0	234.217398551375	426.25488691120296	0.0	307.3523422501311	362.32331372056086	0.0	306.34930566418996	444.970712926325	0.0	233.65201502386705	475.5977016837068	0.0
586	9.766666666666666	248.97479090670316	515.4347865211442	0.0	220.6400621429579	522.6212449377977	0.0	219.1507131985376	634.6785885038357	0.0	221.28736731912198	726.5907331405302	0.0	219.72261984312618	768.1102038884945	0.0	203.00351636794073	762.2816740778004	0.0	227.77305593119613	737.0330427280599	0.0	276.02916207022304	525.3921880919686	0.0	269.2600485073888	636.7059854360004	0.0	268.6494713052672	731.2269695455713	0.0	266.08909868635334	769.8821949145267	0.0	283.84258411228785	765.5062347049154	0.0	264.3407997538741	740.3268809398419	0.0	254.56633753648308	333.2332284723239	0.0	251.8946194491137	250.06730478185037	0.0	241.64638100727478	292.69116463114864	0.0	207.12522950993747	359.38588991009186	0.0	189.6175430654251	437.8806864471952	0.0	232.14222558391904	426.2781646617965	0.0	307.2639565169378	362.43893555805846	0.0	307.4887908571013	444.8618598545392	0.0	237.27849716709585	475.72181761886185	0.0
587	9.783333333333333	248.78660760196144	515.5015263673141	0.0	220.54634909974914	522.3933024454373	0.0	219.03461356648563	634.6812646525956	0.0	221.32894055527686	726.5815632136176	0.0	219.67222852950127	767.9922861004662	0.0	202.9802824401588	762.1451879299304	0.0	227.7646032457777	737.0130304571063	0.0	275.87806438206746	525.1964000946257	0.0	269.12671258472477	636.6613831952706	0.0	268.66408969116145	731.2460467183245	0.0	266.14154077111306	769.8160909995482	0.0	283.77078160832406	765.5311555803717	0.0	264.47034501818877	740.3230677304921	0.0	254.54438851146833	333.1675538960526	0.0	251.8133035689872	250.00686820748746	0.0	241.58539154896727	292.75167348485274	0.0	207.0762031915606	359.58407195915885	0.0	189.37999437799036	437.89462065279025	0.0	227.70575208661734	426.49801019806216	0.0	307.2102236323039	362.54907628173197	0.0	309.127161452169	444.56024361240026	0.0	243.2679289218468	475.6617228189454	0.0
588	9.8	248.57273679807278	515.5476021036999	0.0	220.47931667261986	522.0551264415275	0.0	218.93487993976748	634.6733074418479	0.0	221.3746281836514	726.6202029378188	0.0	219.67485238014552	767.8343816023441	0.0	203.0052714690946	761.9761704804006	0.0	227.72183512770428	737.0359209068864	0.0	275.72905830612484	524.8882682236655	0.0	269.0140467950418	636.5768719798248	0.0	268.6699942842641	731.2769486915928	0.0	266.17635575760596	769.7143989054504	0.0	283.66864820269655	765.5257546052864	0.0	264.609708671487	740.3364705067131	0.0	254.53890238387987	333.03207740445043	0.0	251.7319475480026	249.915202885482	0.0	241.57805393528687	292.8231633065161	0.0	206.97404390178818	359.83080199976627	0.0	188.87040654622191	437.85859943039554	0.0	221.1490464258975	426.90411604663655	0.0	307.19708796124144	362.6486337485706	0.0	311.1671519933961	444.0561064292724	0.0	251.4671143954443	475.39059717880895	0.0
589	9.816666666666666	248.35188991188528	515.5456535354782	0.0	220.44347328038654	521.6008869813431	0.0	218.8516157843202	634.6452144920183	0.0	221.41919103712388	726.7013173911552	0.0	219.73382701597936	767.6530520458409	0.0	203.07008337048336	761.7865357861161	0.0	227.6393183869888	737.0953426761486	0.0	275.5944625227831	524.4560464023555	0.0	268.9266717308347	636.4500375147259	0.0	268.671863603823	731.2998755750366	0.0	266.1911247859698	769.5743871839555	0.0	283.54452548446193	765.4779249607988	0.0	264.75439874152045	740.3445227472143	0.0	254.5513186263679	332.8293128170239	0.0	251.65758003907075	249.79436326001058	0.0	241.62164104877402	292.89550326347455	0.0	206.82885685782387	360.1134363560863	0.0	188.12809093341883	437.7213566647142	0.0	212.79683016093693	427.462140966455	0.0	307.2262318844929	362.73082005842804	0.0	313.499023087036	443.34419406836895	0.0	261.6559363798579	474.8748248990153	0.0
590	9.833333333333334	248.14378612970765	515.4703817020369	0.0	220.4414942730283	521.023959496582	0.0	218.77928422056158	634.5870192246235	0.0	221.4581670643756	726.8174190741877	0.0	219.84563369467932	767.4677031455146	0.0	203.16195525877072	761.5916681226054	0.0	227.51445631517657	737.1801626580107	0.0	275.4871716955459	523.8905981104853	0.0	268.8665885124636	636.2818243046524	0.0	268.67536619643784	731.3020017505864	0.0	266.18274364292324	769.4025908680218	0.0	283.40439882039317	765.3881581735935	0.0	264.90043542242717	740.3286436567444	0.0	254.57824943103688	332.55671904079946	0.0	251.59584830519455	249.64473506074862	0.0	241.71830892967174	292.95038060436394	0.0	206.64973453508233	360.4164506257194	0.0	187.19809873646423	437.44811031820757	0.0	203.03036175454574	428.11137712349984	0.0	307.29395399053334	362.7843145730127	0.0	316.01385167971796	442.4277260590625	0.0	273.5350604158082	474.0839790498802	0.0
591	9.85	247.96450807560808	515.3101189450866	0.0	220.47105889526355	520.3355561348149	0.0	218.71016260937708	634.494825376103	0.0	221.4877835400615	726.9600182338924	0.0	220.000765642448	767.2981203664799	0.0	203.26693708961704	761.4094280056186	0.0	227.3481394264393	737.2782350926235	0.0	275.4150668573214	523.2045479643311	0.0	268.8326780328115	636.0807346731463	0.0	268.68474612979867	731.2796734448089	0.0	266.1501859991954	769.2125113615396	0.0	283.25669689087033	765.2676134676566	0.0	265.0409722165571	740.2809488808437	0.0	254.6111962285025	332.2194633023423	0.0	251.55085673898557	249.47031523494275	0.0	241.8732643451172	292.97155759510287	0.0	206.4457124469679	360.72412196052466	0.0	186.1203891385328	437.0341727126236	0.0	192.2567510391546	428.7739989341703	0.0	307.3906280855064	362.79982076475324	0.0	318.60985069610456	441.33038656865693	0.0	286.70925849693583	473.00562348617456	0.0
592	9.866666666666667	247.82512158319	515.0774146207643	0.0	220.52507664999905	519.5812848127583	0.0	218.63870236509902	634.3785584203905	0.0	221.5053578978662	727.1186758128654	0.0	220.18601965681947	767.1620325323743	0.0	203.37490397555143	761.2582566457183	0.0	227.1451064010492	737.3779792262234	0.0	275.3781314845404	522.447885649271	0.0	268.8222073360574	635.8650004706552	0.0	268.7015030636188	731.2331139177368	0.0	266.0971251875417	769.0198880256544	0.0	283.11566137796956	765.1315847817434	0.0	265.16565972496585	740.2017047592233	0.0	254.6401315323223	331.8414553397088	0.0	251.52573429275097	249.28283847903526	0.0	242.0859780582127	292.9562570520171	0.0	206.22655734736045	361.02465558404606	0.0	184.9251267331681	436.51224048116194	0.0	180.87439639896616	429.3777558708686	0.0	307.5024030228857	362.7782224753571	0.0	321.1980231460165	440.11158508642296	0.0	300.6985482097306	471.6559398612141	0.0
593	9.883333333333333	247.73179402319136	514.8039932659035	0.0	220.59434906347573	518.8284860870556	0.0	218.56378105188833	634.2597040517799	0.0	221.5103468147432	727.2848572470057	0.0	220.38645104099393	767.0717087687723	0.0	203.48192434245345	761.1532046845541	0.0	226.91356237811476	737.472690750467	0.0	275.369547777421	521.6940737261881	0.0	268.83242105153056	635.6577171695008	0.0	268.7260293465952	731.1640565834003	0.0	266.0311523201699	768.8388251472137	0.0	282.99873138301706	764.9956030785613	0.0	265.2652646259896	740.0962373679616	0.0	254.65728221407815	331.45710704821056	0.0	251.52030177381968	249.09794240629057	0.0	242.344759320123	292.9151598775286	0.0	206.00094528850508	361.31006257720355	0.0	183.638991278278	435.9453650094018	0.0	169.2511334604897	429.874558065734	0.0	307.61546138667126	362.7297310341751	0.0	323.70929915213344	438.86746548811664	0.0	314.98582946344175	470.0830631952427	0.0
